# xmcd
#
# Track frame offsets: 
#        182
#        14010
#        25405
#        37492
#        56305
#        69112
#        84850
#        96202
#        110572
#        128452
#        139080
#        149910
#        169602
#        181950
#        200922
#        214562
#        236555
#        251035
#
# Disc length: 3479 seconds
#
# Revision: 2
# Processed by: cddbd v1.5.2PL0 Copyright (c) Steve Scherf et al.
# Submitted via: ExactAudioCopy v0.99pb5
#
DISCID=070d9512
DTITLE=Various Artist - Original blues [Vogue] | CD2
DYEAR=1994
DGENRE=Blues
TTITLE0=Koko Taylor - I got what it takes
TTITLE1=Sonny Boy Williamson - Bring it on home
TTITLE2=JB Lenoir - When I'm drinking
TTITLE3=Lightin' Hopkins - Good times
TTITLE4=Willie Mabon - Seventh son
TTITLE5=Jimmy Reed - Big legged woman
TTITLE6=Sonny Boy Williamson - Your funeral, my trial
TTITLE7=Otis Rush - So many roads, so many trains
TTITLE8=John Lee Hooker - Wednesday evening blues
TTITLE9=BB King - Recession blues
TTITLE10=Lightin' Hopkins - What did I say
TTITLE11=Little Milton - Stormy monday
TTITLE12=Chuck Berry - No particular place to go
TTITLE13=Etta James - Baby what you want me to do
TTITLE14=Albert King - Bad luck blues
TTITLE15=Lightin' Hopkins - Shake it babe
TTITLE16=Big Bill Broonzy - Romance without finance
TTITLE17=Buddy Guy - First time I meet the blues
EXTD=
EXTT0=
EXTT1=
EXTT2=
EXTT3=
EXTT4=
EXTT5=
EXTT6=
EXTT7=
EXTT8=
EXTT9=
EXTT10=
EXTT11=
EXTT12=
EXTT13=
EXTT14=
EXTT15=
EXTT16=
EXTT17=
PLAYORDER=
